<?xml version="1.0" standalone="no"?>
<!DOCTYPE svg PUBLIC "-//W3C//DTD SVG 20010904//EN"
 "http://www.w3.org/TR/2001/REC-SVG-20010904/DTD/svg10.dtd">
<svg version="1.0" xmlns="http://www.w3.org/2000/svg"
 width="512.000000pt" height="512.000000pt" viewBox="0 0 512.000000 512.000000"
 preserveAspectRatio="xMidYMid meet">

<g transform="translate(0.000000,512.000000) scale(0.100000,-0.100000)"
fill="#000000" stroke="none">
<path d="M1760 4320 l0 -160 800 0 800 0 0 160 0 160 -800 0 -800 0 0 -160z"/>
<path d="M2063 1110 c-251 -45 -444 -264 -460 -520 -19 -317 240 -591 560
-590 316 1 573 275 554 590 -14 228 -167 427 -383 499 -72 24 -198 34 -271 21z"/>
<path d="M3983 1110 c-251 -45 -444 -264 -460 -520 -19 -317 240 -591 560
-590 316 1 573 275 554 590 -14 228 -167 427 -383 499 -72 24 -198 34 -271 21z"/>
</g>
</svg>
